<svg xmlns="http://www.w3.org/2000/svg" xmlns:xlink="http://www.w3.org/1999/xlink" viewBox="0,0,256,256" width="64px" height="64px" fill-rule="nonzero"><g fill="none" fill-rule="nonzero" stroke="none" stroke-width="1" stroke-linecap="butt" stroke-linejoin="miter" stroke-miterlimit="10" stroke-dasharray="" stroke-dashoffset="0" font-family="none" font-weight="none" font-size="none" text-anchor="none" style="mix-blend-mode: normal"><g transform="scale(0.5,0.5)"><path d="M477.98,432.81c11.99481,11.99119 12.52608,31.2663 1.21,43.9c-0.39,0.43 -0.79,0.85 -1.21,1.25l-0.02,0.03c-12.47472,12.47005 -32.69528,12.47005 -45.17,0l-93.44,-93.4l8.91,-8.9l27.59,-27.59l8.7,-8.69z" fill="#4c7224"></path><path d="M375.85,348.1l-27.59,27.59l-0.01,-0.01l-25.35,-25.34l-0.04,-0.05c10.14547,-8.18879 19.39385,-17.43047 27.59,-27.57l0.04,0.03l25.35,25.34z" fill="#d9c4a9"></path><path d="M391.04,207.77c0.06388,41.83959 -14.26811,82.42749 -40.59,114.95c-8.19615,10.13953 -17.44453,19.38121 -27.59,27.57c-32.54542,26.32133 -73.15296,40.64925 -115.01,40.58c-101.17,0 -183.19,-81.98 -183.19,-183.1c0,-101.12 82.02,-183.11 183.19,-183.11c101.17,0 183.19,81.98 183.19,183.11zM344.3,207.77c0.02629,-55.19726 -33.20377,-104.97396 -84.19203,-126.11479c-50.98827,-21.14083 -109.69105,-9.48145 -148.72999,29.54032c-39.03894,39.02178 -50.72414,97.71942 -29.60573,148.71698c21.1184,50.99756 70.88049,84.24951 126.07775,84.24749c75.34131,0.01326 136.43012,-61.04869 136.45,-136.39z" fill="#f3f3f3"></path><path d="M207.85,71.37c75.32382,0.03313 136.36208,61.11616 136.33999,136.43998c-0.02209,75.32382 -61.09616,136.37104 -136.41999,136.36c-75.32383,-0.01104 -136.38,-61.07616 -136.38001,-136.39999c0.00689,-36.18381 14.38802,-70.88277 39.97946,-96.46296c25.59144,-25.58019 60.29673,-39.94605 96.48054,-39.93704zM296.48,173.93c0,-11.06 -7.24,-20.03 -16.17,-20.03c-8.93,0 -16.17,8.97 -16.17,20.03c0,11.06 7.24,20.04 16.17,20.04c8.93,0 16.17,-8.97 16.17,-20.04zM268,241.43c0,-36.7 -25.97,-66.44 -58,-66.44c-32.03,0 -58,29.74 -58,66.44c0,36.7 25.97,66.44 58,66.44c32.03,0 58,-29.75 58,-66.44zM255.44,141.12c0,-12.69 -8.3,-22.99 -18.55,-22.99c-10.25,0 -18.55,10.3 -18.55,22.99c0,12.69 8.3,22.99 18.55,22.99c10.25,0 18.55,-10.29 18.55,-22.99zM201.66,141.12c0,-12.69 -8.3,-22.99 -18.55,-22.99c-10.25,0 -18.55,10.3 -18.55,22.99c0,12.69 8.3,22.99 18.55,22.99c10.25,0 18.55,-10.29 18.55,-22.99zM155.86,173.93c0,-11.06 -7.24,-20.03 -16.17,-20.03c-8.93,0 -16.17,8.97 -16.17,20.03c0,11.06 7.24,20.04 16.17,20.04c8.93,0 16.17,-8.97 16.17,-20.04z" fill="#4c7224"></path><path d="M280.31,153.9c8.93,0 16.17,8.97 16.17,20.03c0,11.06 -7.24,20.04 -16.17,20.04c-8.93,0 -16.17,-8.97 -16.17,-20.04c0,-11.07 7.24,-20.03 16.17,-20.03z" fill="#d9c4a9"></path><ellipse cx="210" cy="241.43" rx="58" ry="66.44" fill="#d9c4a9"></ellipse><ellipse cx="236.89" cy="141.12" rx="18.55" ry="22.99" fill="#d9c4a9"></ellipse><ellipse cx="183.11" cy="141.12" rx="18.55" ry="22.99" fill="#d9c4a9"></ellipse><path d="M139.69,153.9c8.93,0 16.17,8.97 16.17,20.03c0,11.06 -7.24,20.04 -16.17,20.04c-8.93,0 -16.17,-8.97 -16.17,-20.04c0,-11.07 7.24,-20.03 16.17,-20.03z" fill="#d9c4a9"></path><path d="M207.85,65.37c-78.553,0 -142.46,63.88 -142.46,142.4c0,78.52 63.91,142.39 142.46,142.39c78.55,0 142.45,-63.876 142.45,-142.39c0,-78.514 -63.9,-142.4 -142.45,-142.4zM207.85,338.16c-71.936,0 -130.46,-58.493 -130.46,-130.39c0,-71.897 58.524,-130.4 130.46,-130.4c71.936,0 130.45,58.5 130.45,130.4c0,71.9 -58.52,130.39 -130.45,130.39z" fill="#242424"></path><path d="M388.792,335.167c-2.34277,-2.34096 -6.13923,-2.34096 -8.482,0l-4.458,4.453l-17.4,-17.395c24.99739,-32.92412 38.5481,-73.11657 38.588,-114.455c0,-104.275 -84.87,-189.11 -189.19,-189.11c-104.32,0 -189.19,84.84 -189.19,189.11c0,104.27 84.87,189.1 189.19,189.1c41.35662,-0.03418 81.56919,-13.58211 114.515,-38.581l17.4,17.4l-4.66,4.658c-1.12605,1.12533 -1.75872,2.65203 -1.75872,4.244c0,1.59197 0.63267,3.11867 1.75872,4.244l93.474,93.434c14.80262,14.78657 38.78538,14.78657 53.588,0c0.054,-0.053 0.106,-0.108 0.16,-0.165c0.415,-0.4 0.835,-0.843 1.3,-1.359c13.437,-14.8 12.788,-38.226 -1.41,-52.176zM30.66,207.77c0,-97.659 79.487,-177.11 177.19,-177.11c97.703,0 177.19,79.451 177.19,177.11c0.00629,53.561 -24.24044,104.2443 -65.947,137.85v0c-31.52597,25.37573 -70.77309,39.22334 -111.243,39.25c-97.703,0 -177.19,-79.447 -177.19,-177.1zM331.726,350.677c6.81238,-5.90778 13.19801,-12.2904 19.109,-19.1l16.528,16.523l-19.107,19.1zM474.748,472.677c-0.292,0.323 -0.591,0.639 -0.9,0.939c-0.083,0.079 -0.166,0.163 -0.247,0.251c-10.15981,9.99044 -26.46943,9.93736 -36.564,-0.119l-89.194,-89.156l36.71,-36.7l89.227,89.2c9.70175,9.73052 10.12639,25.34043 0.968,35.584z" fill="#242424"></path><path d="M210,168.99c-35.29,0 -64,32.5 -64,72.44c0,39.94 28.71,72.44 64,72.44c35.29,0 64,-32.5 64,-72.44c0,-39.94 -28.71,-72.44 -64,-72.44zM210,301.87c-28.673,0 -52,-27.113 -52,-60.44c0,-33.327 23.327,-60.44 52,-60.44c28.673,0 52,27.114 52,60.44c0,33.326 -23.327,60.44 -52,60.44z" fill="#242424"></path><path d="M236.89,170.11c13.537,0 24.55,-13.005 24.55,-28.99c0,-15.985 -11.013,-28.99 -24.55,-28.99c-13.537,0 -24.55,13.005 -24.55,28.99c0,15.985 11.013,28.99 24.55,28.99zM236.89,124.13c6.8,0 12.55,7.781 12.55,16.99c0,9.209 -5.747,16.99 -12.55,16.99c-6.803,0 -12.55,-7.78 -12.55,-16.99c0,-9.21 5.747,-16.99 12.55,-16.99z" fill="#242424"></path><path d="M280.31,147.9c-12.225,0 -22.17,11.677 -22.17,26.03c0,14.353 9.945,26.04 22.17,26.04c12.225,0 22.17,-11.681 22.17,-26.04c0,-14.359 -9.946,-26.03 -22.17,-26.03zM280.31,187.97c-5.513,0 -10.17,-6.429 -10.17,-14.04c0,-7.611 4.657,-14.03 10.17,-14.03c5.513,0 10.17,6.425 10.17,14.03c0,7.605 -4.657,14.04 -10.17,14.04z" fill="#242424"></path><path d="M183.11,170.11c13.537,0 24.55,-13.005 24.55,-28.99c0,-15.985 -11.013,-28.99 -24.55,-28.99c-13.537,0 -24.55,13.005 -24.55,28.99c0,15.985 11.013,28.99 24.55,28.99zM183.11,124.13c6.8,0 12.55,7.781 12.55,16.99c0,9.209 -5.747,16.99 -12.55,16.99c-6.803,0 -12.55,-7.78 -12.55,-16.99c0,-9.21 5.747,-16.99 12.55,-16.99z" fill="#242424"></path><path d="M161.86,173.93c0,-14.353 -9.945,-26.03 -22.17,-26.03c-12.225,0 -22.17,11.677 -22.17,26.03c0,14.353 9.946,26.04 22.17,26.04c12.224,0 22.17,-11.681 22.17,-26.04zM139.69,187.97c-5.513,0 -10.17,-6.429 -10.17,-14.04c0,-7.611 4.657,-14.03 10.17,-14.03c5.513,0 10.17,6.425 10.17,14.03c0,7.605 -4.66,14.04 -10.17,14.04z" fill="#242424"></path></g></g></svg>